<?xml version="1.0" encoding="UTF-8" standalone="no"?><!DOCTYPE svg PUBLIC "-//W3C//DTD SVG 1.1//EN" "http://www.w3.org/Graphics/SVG/1.1/DTD/svg11.dtd"><svg width="100%" height="100%" viewBox="0 0 809 1024" version="1.1" xmlns="http://www.w3.org/2000/svg" xmlns:xlink="http://www.w3.org/1999/xlink" xml:space="preserve" xmlns:serif="http://www.serif.com/" style="fill-rule:evenodd;clip-rule:evenodd;stroke-linecap:round;stroke-linejoin:round;stroke-miterlimit:1.5;"><g><g><path d="M802.103,208.445c-0,-65.886 -53.492,-119.377 -119.378,-119.377l-557.097,-0c-65.887,-0 -119.378,53.491 -119.378,119.377l-0,689.797c-0,65.886 53.491,119.378 119.378,119.378l557.097,-0c65.886,-0 119.378,-53.492 119.378,-119.378l-0,-689.797Z" style="fill:#fff2ce;stroke:#a0a8a6;stroke-width:12.5px;"/><path d="M356.302,36.599c0,-16.618 -13.492,-30.11 -30.11,-30.11c-16.619,0 -30.111,13.492 -30.111,30.11l0,107.224c0,16.618 13.492,30.11 30.111,30.11c16.618,-0 30.11,-13.492 30.11,-30.11l0,-107.224Z" style="fill:#737373;stroke:#404040;stroke-width:12.5px;"/><path d="M202.699,36.504c-0,-16.619 -13.492,-30.111 -30.111,-30.111c-16.618,0 -30.11,13.492 -30.11,30.111l0,107.223c0,16.618 13.492,30.11 30.11,30.11c16.619,0 30.111,-13.492 30.111,-30.11l-0,-107.223Z" style="fill:#737373;stroke:#404040;stroke-width:12.5px;"/><path d="M318.976,34.48c-0,-4.919 -3.994,-8.913 -8.914,-8.913c-4.919,0 -8.913,3.994 -8.913,8.913l0,52.445c0,4.919 3.994,8.913 8.913,8.913c4.92,-0 8.914,-3.994 8.914,-8.913l-0,-52.445Z" style="fill:#e6e6e6;"/><path d="M165.16,33.247c0,-4.919 -3.993,-8.913 -8.913,-8.913c-4.919,0 -8.913,3.994 -8.913,8.913l0,52.445c0,4.919 3.994,8.913 8.913,8.913c4.92,-0 8.913,-3.994 8.913,-8.913l0,-52.445Z" style="fill:#e6e6e6;"/><path d="M660.139,36.456c-0,-16.618 -13.492,-30.11 -30.111,-30.11c-16.618,-0 -30.11,13.492 -30.11,30.11l-0,107.223c-0,16.618 13.492,30.11 30.11,30.11c16.619,0 30.111,-13.492 30.111,-30.11l-0,-107.223Z" style="fill:#737373;stroke:#404040;stroke-width:12.5px;"/><path d="M510.072,36.36c0,-16.618 -13.492,-30.11 -30.11,-30.11c-16.618,0 -30.11,13.492 -30.11,30.11l-0,107.224c-0,16.618 13.492,30.11 30.11,30.11c16.618,-0 30.11,-13.492 30.11,-30.11l0,-107.224Z" style="fill:#737373;stroke:#404040;stroke-width:12.5px;"/><path d="M472.859,33.849c-0,-4.919 -3.994,-8.913 -8.913,-8.913c-4.92,0 -8.914,3.994 -8.914,8.913l0,52.445c0,4.919 3.994,8.913 8.914,8.913c4.919,0 8.913,-3.994 8.913,-8.913l-0,-52.445Z" style="fill:#e6e6e6;"/><path d="M622.788,33.396c-0,-4.92 -3.994,-8.914 -8.913,-8.914c-4.92,0 -8.914,3.994 -8.914,8.914l0,52.444c0,4.919 3.994,8.913 8.914,8.913c4.919,0 8.913,-3.994 8.913,-8.913l-0,-52.444Z" style="fill:#e6e6e6;"/><path d="M744.285,317.826c0,-5.857 -4.755,-10.612 -10.612,-10.612l-659.916,-0c-5.857,-0 -10.613,4.755 -10.613,10.612c0,5.857 4.756,10.612 10.613,10.612l659.916,-0c5.857,-0 10.612,-4.755 10.612,-10.612Z" style="fill:#ffbf82;"/><path d="M744.333,420.553c-0,-5.857 -4.755,-10.612 -10.612,-10.612l-659.917,-0c-5.857,-0 -10.612,4.755 -10.612,10.612c0,5.857 4.755,10.612 10.612,10.612l659.917,-0c5.857,-0 10.612,-4.755 10.612,-10.612Z" style="fill:#ffbf82;"/><path d="M744.285,522.107c0,-5.857 -4.755,-10.612 -10.612,-10.612l-659.916,0c-5.857,0 -10.613,4.755 -10.613,10.612c0,5.857 4.756,10.612 10.613,10.612l659.916,0c5.857,0 10.612,-4.755 10.612,-10.612Z" style="fill:#ffbf82;"/><path d="M744.333,624.834c-0,-5.857 -4.755,-10.612 -10.612,-10.612l-659.917,0c-5.857,0 -10.612,4.755 -10.612,10.612c0,5.857 4.755,10.612 10.612,10.612l659.917,0c5.857,0 10.612,-4.755 10.612,-10.612Z" style="fill:#ffbf82;"/><path d="M744.333,725.649c-0,-5.857 -4.755,-10.612 -10.612,-10.612l-659.917,-0c-5.857,-0 -10.612,4.755 -10.612,10.612c0,5.856 4.755,10.612 10.612,10.612l659.917,-0c5.857,-0 10.612,-4.756 10.612,-10.612Z" style="fill:#ffbf82;"/><path d="M744.333,828.231c-0,-5.856 -4.755,-10.612 -10.612,-10.612l-659.917,0c-5.857,0 -10.612,4.756 -10.612,10.612c0,5.857 4.755,10.613 10.612,10.613l659.917,-0c5.857,-0 10.612,-4.756 10.612,-10.613Z" style="fill:#ffbf82;"/></g></g></svg>